<?xml version="1.0" encoding="utf-8"?>
<!-- Generator: Adobe Illustrator 23.0.1, SVG Export Plug-In . SVG Version: 6.00 Build 0)  -->
<svg version="1.1" id="Layer_1" xmlns="http://www.w3.org/2000/svg" xmlns:xlink="http://www.w3.org/1999/xlink" x="0px" y="0px"
	 viewBox="0 0 480 480" style="enable-background:new 0 0 480 480;" xml:space="preserve">
<style type="text/css">
	.st0{fill:url(#SVGID_1_);}
	.st1{fill:url(#SVGID_2_);}
	.st2{fill:url(#SVGID_3_);}
	.st3{fill:url(#SVGID_4_);}
	.st4{fill:url(#SVGID_5_);}
	.st5{fill:url(#SVGID_6_);}
	.st6{fill:url(#SVGID_7_);}
	.st7{fill:url(#SVGID_8_);}
	.st8{fill:url(#SVGID_9_);}
	.st9{fill:url(#SVGID_10_);}
	.st10{fill:url(#SVGID_11_);}
	.st11{fill:url(#SVGID_12_);}
	.st12{fill:url(#SVGID_13_);}
</style>
<g>
	<g>
		<g>
			<linearGradient id="SVGID_1_" gradientUnits="userSpaceOnUse" x1="240" y1="464" x2="240" y2="16">
				<stop  offset="0" style="stop-color:#F26522"/>
				<stop  offset="3.563249e-02" style="stop-color:#F35A2F"/>
				<stop  offset="0.132" style="stop-color:#F5414D"/>
				<stop  offset="0.2386" style="stop-color:#F72C66"/>
				<stop  offset="0.3575" style="stop-color:#F81C79"/>
				<stop  offset="0.4954" style="stop-color:#F91187"/>
				<stop  offset="0.6698" style="stop-color:#FA0A8F"/>
				<stop  offset="1" style="stop-color:#FA0891"/>
			</linearGradient>
			<path class="st0" d="M456,232V56c0-22.1-17.9-40-40-40H64c-22.1,0-40,17.9-40,40v120c-13.2,0-24,10.8-24,24v240
				c0,13.2,10.8,24,24,24h176c13.2,0,24-10.8,24-24h67c7.5,0,14.5-3.4,19.1-9.4s6.1-13.6,4.1-20.9L298.5,352H344v88
				c0,13.2,10.8,24,24,24h88c13.2,0,24-10.8,24-24V256C480,242.8,469.2,232,456,232z M208,440c0,4.4-3.6,8-8,8H24c-4.4,0-8-3.6-8-8
				v-16h192V440z M208,408H16V232h192V408z M208,216H16v-16c0-4.4,3.6-8,8-8h176c4.4,0,8,3.6,8,8V216z M298.8,413.9
				c0.7,2.4,0.2,5-1.4,7s-3.8,3.1-6.4,3.1h-67v-16h73.2L298.8,413.9z M224,392v-40h57.9l10.9,40H224z M344,336H224v-48h120V336z
				 M344,256v16H224v-72c0-13.2-10.8-24-24-24H40V56c0-13.2,10.8-24,24-24h352c13.2,0,24,10.8,24,24v176h-72
				C354.8,232,344,242.8,344,256z M464,440c0,4.4-3.6,8-8,8h-88c-4.4,0-8-3.6-8-8v-16h104V440z M464,408H360V288h104V408z M464,272
				H360v-16c0-4.4,3.6-8,8-8h88c4.4,0,8,3.6,8,8V272z"/>
		</g>
	</g>
	<g>
		<g>
			<linearGradient id="SVGID_2_" gradientUnits="userSpaceOnUse" x1="63.9972" y1="357.6489" x2="63.9972" y2="314.3348">
				<stop  offset="0" style="stop-color:#F26522"/>
				<stop  offset="3.563249e-02" style="stop-color:#F35A2F"/>
				<stop  offset="0.132" style="stop-color:#F5414D"/>
				<stop  offset="0.2386" style="stop-color:#F72C66"/>
				<stop  offset="0.3575" style="stop-color:#F81C79"/>
				<stop  offset="0.4954" style="stop-color:#F91187"/>
				<stop  offset="0.6698" style="stop-color:#FA0A8F"/>
				<stop  offset="1" style="stop-color:#FA0891"/>
			</linearGradient>
			<polygon class="st1" points="42.3,346.3 74.3,314.3 85.7,325.6 53.7,357.6 			"/>
		</g>
	</g>
	<g>
		<g>
			<linearGradient id="SVGID_3_" gradientUnits="userSpaceOnUse" x1="127.9945" y1="381.6505" x2="127.9945" y2="274.3361">
				<stop  offset="0" style="stop-color:#F26522"/>
				<stop  offset="3.563249e-02" style="stop-color:#F35A2F"/>
				<stop  offset="0.132" style="stop-color:#F5414D"/>
				<stop  offset="0.2386" style="stop-color:#F72C66"/>
				<stop  offset="0.3575" style="stop-color:#F81C79"/>
				<stop  offset="0.4954" style="stop-color:#F91187"/>
				<stop  offset="0.6698" style="stop-color:#FA0A8F"/>
				<stop  offset="1" style="stop-color:#FA0891"/>
			</linearGradient>
			<polygon class="st2" points="74.3,370.3 170.3,274.3 181.7,285.6 85.7,381.7 			"/>
		</g>
	</g>
	<g>
		<g>
			<linearGradient id="SVGID_4_" gradientUnits="userSpaceOnUse" x1="119.9912" y1="309.6597" x2="119.9912" y2="250.3488">
				<stop  offset="0" style="stop-color:#F26522"/>
				<stop  offset="3.563249e-02" style="stop-color:#F35A2F"/>
				<stop  offset="0.132" style="stop-color:#F5414D"/>
				<stop  offset="0.2386" style="stop-color:#F72C66"/>
				<stop  offset="0.3575" style="stop-color:#F81C79"/>
				<stop  offset="0.4954" style="stop-color:#F91187"/>
				<stop  offset="0.6698" style="stop-color:#FA0A8F"/>
				<stop  offset="1" style="stop-color:#FA0891"/>
			</linearGradient>
			<polygon class="st3" points="90.3,298.3 138.3,250.3 149.6,261.7 101.6,309.7 			"/>
		</g>
	</g>
	<g>
		<g>
			<linearGradient id="SVGID_5_" gradientUnits="userSpaceOnUse" x1="403.9795" y1="357.6615" x2="403.9795" y2="306.355">
				<stop  offset="0" style="stop-color:#F26522"/>
				<stop  offset="3.563249e-02" style="stop-color:#F35A2F"/>
				<stop  offset="0.132" style="stop-color:#F5414D"/>
				<stop  offset="0.2386" style="stop-color:#F72C66"/>
				<stop  offset="0.3575" style="stop-color:#F81C79"/>
				<stop  offset="0.4954" style="stop-color:#F91187"/>
				<stop  offset="0.6698" style="stop-color:#FA0A8F"/>
				<stop  offset="1" style="stop-color:#FA0891"/>
			</linearGradient>
			<polygon class="st4" points="378.3,346.3 418.3,306.4 429.6,317.7 389.6,357.7 			"/>
		</g>
	</g>
	<g>
		<g>
			<linearGradient id="SVGID_6_" gradientUnits="userSpaceOnUse" x1="419.9764" y1="389.6955" x2="419.9764" y2="338.3891">
				<stop  offset="0" style="stop-color:#F26522"/>
				<stop  offset="3.563249e-02" style="stop-color:#F35A2F"/>
				<stop  offset="0.132" style="stop-color:#F5414D"/>
				<stop  offset="0.2386" style="stop-color:#F72C66"/>
				<stop  offset="0.3575" style="stop-color:#F81C79"/>
				<stop  offset="0.4954" style="stop-color:#F91187"/>
				<stop  offset="0.6698" style="stop-color:#FA0A8F"/>
				<stop  offset="1" style="stop-color:#FA0891"/>
			</linearGradient>
			<polygon class="st5" points="394.3,378.4 434.3,338.4 445.6,349.7 405.6,389.7 			"/>
		</g>
	</g>
	<g>
		<g>
			<linearGradient id="SVGID_7_" gradientUnits="userSpaceOnUse" x1="239.989" y1="165.6582" x2="239.989" y2="106.3473">
				<stop  offset="0" style="stop-color:#F26522"/>
				<stop  offset="3.563249e-02" style="stop-color:#F35A2F"/>
				<stop  offset="0.132" style="stop-color:#F5414D"/>
				<stop  offset="0.2386" style="stop-color:#F72C66"/>
				<stop  offset="0.3575" style="stop-color:#F81C79"/>
				<stop  offset="0.4954" style="stop-color:#F91187"/>
				<stop  offset="0.6698" style="stop-color:#FA0A8F"/>
				<stop  offset="1" style="stop-color:#FA0891"/>
			</linearGradient>
			<polygon class="st6" points="210.3,154.3 258.3,106.3 269.6,117.7 221.6,165.7 			"/>
		</g>
	</g>
	<g>
		<g>
			<linearGradient id="SVGID_8_" gradientUnits="userSpaceOnUse" x1="311.9935" y1="149.6581" x2="311.9935" y2="90.3473">
				<stop  offset="0" style="stop-color:#F26522"/>
				<stop  offset="3.563249e-02" style="stop-color:#F35A2F"/>
				<stop  offset="0.132" style="stop-color:#F5414D"/>
				<stop  offset="0.2386" style="stop-color:#F72C66"/>
				<stop  offset="0.3575" style="stop-color:#F81C79"/>
				<stop  offset="0.4954" style="stop-color:#F91187"/>
				<stop  offset="0.6698" style="stop-color:#FA0A8F"/>
				<stop  offset="1" style="stop-color:#FA0891"/>
			</linearGradient>
			<polygon class="st7" points="282.3,138.3 330.3,90.3 341.6,101.7 293.7,149.7 			"/>
		</g>
	</g>
	<g>
		<g>
			<linearGradient id="SVGID_9_" gradientUnits="userSpaceOnUse" x1="255.9889" y1="197.6673" x2="255.9889" y2="154.3532">
				<stop  offset="0" style="stop-color:#F26522"/>
				<stop  offset="3.563249e-02" style="stop-color:#F35A2F"/>
				<stop  offset="0.132" style="stop-color:#F5414D"/>
				<stop  offset="0.2386" style="stop-color:#F72C66"/>
				<stop  offset="0.3575" style="stop-color:#F81C79"/>
				<stop  offset="0.4954" style="stop-color:#F91187"/>
				<stop  offset="0.6698" style="stop-color:#FA0A8F"/>
				<stop  offset="1" style="stop-color:#FA0891"/>
			</linearGradient>
			<polygon class="st8" points="234.3,186.4 266.3,154.4 277.6,165.7 245.6,197.7 			"/>
		</g>
	</g>
	<g>
		<g>
			<linearGradient id="SVGID_10_" gradientUnits="userSpaceOnUse" x1="295.9831" y1="101.7595" x2="295.9831" y2="58.3662">
				<stop  offset="0" style="stop-color:#F26522"/>
				<stop  offset="3.563249e-02" style="stop-color:#F35A2F"/>
				<stop  offset="0.132" style="stop-color:#F5414D"/>
				<stop  offset="0.2386" style="stop-color:#F72C66"/>
				<stop  offset="0.3575" style="stop-color:#F81C79"/>
				<stop  offset="0.4954" style="stop-color:#F91187"/>
				<stop  offset="0.6698" style="stop-color:#FA0A8F"/>
				<stop  offset="1" style="stop-color:#FA0891"/>
			</linearGradient>
			<polygon class="st9" points="274.3,90.4 306.4,58.4 317.7,69.7 285.6,101.8 			"/>
		</g>
	</g>
	<g>
		<g>
			<linearGradient id="SVGID_11_" gradientUnits="userSpaceOnUse" x1="64" y1="64" x2="64" y2="48">
				<stop  offset="0" style="stop-color:#F26522"/>
				<stop  offset="3.563249e-02" style="stop-color:#F35A2F"/>
				<stop  offset="0.132" style="stop-color:#F5414D"/>
				<stop  offset="0.2386" style="stop-color:#F72C66"/>
				<stop  offset="0.3575" style="stop-color:#F81C79"/>
				<stop  offset="0.4954" style="stop-color:#F91187"/>
				<stop  offset="0.6698" style="stop-color:#FA0A8F"/>
				<stop  offset="1" style="stop-color:#FA0891"/>
			</linearGradient>
			<rect x="56" y="48" class="st10" width="16" height="16"/>
		</g>
	</g>
	<g>
		<g>
			<linearGradient id="SVGID_12_" gradientUnits="userSpaceOnUse" x1="96" y1="64" x2="96" y2="48">
				<stop  offset="0" style="stop-color:#F26522"/>
				<stop  offset="3.563249e-02" style="stop-color:#F35A2F"/>
				<stop  offset="0.132" style="stop-color:#F5414D"/>
				<stop  offset="0.2386" style="stop-color:#F72C66"/>
				<stop  offset="0.3575" style="stop-color:#F81C79"/>
				<stop  offset="0.4954" style="stop-color:#F91187"/>
				<stop  offset="0.6698" style="stop-color:#FA0A8F"/>
				<stop  offset="1" style="stop-color:#FA0891"/>
			</linearGradient>
			<rect x="88" y="48" class="st11" width="16" height="16"/>
		</g>
	</g>
	<g>
		<g>
			<linearGradient id="SVGID_13_" gradientUnits="userSpaceOnUse" x1="128" y1="64" x2="128" y2="48">
				<stop  offset="0" style="stop-color:#F26522"/>
				<stop  offset="3.563249e-02" style="stop-color:#F35A2F"/>
				<stop  offset="0.132" style="stop-color:#F5414D"/>
				<stop  offset="0.2386" style="stop-color:#F72C66"/>
				<stop  offset="0.3575" style="stop-color:#F81C79"/>
				<stop  offset="0.4954" style="stop-color:#F91187"/>
				<stop  offset="0.6698" style="stop-color:#FA0A8F"/>
				<stop  offset="1" style="stop-color:#FA0891"/>
			</linearGradient>
			<rect x="120" y="48" class="st12" width="16" height="16"/>
		</g>
	</g>
</g>
</svg>
