<?xml version="1.0" encoding="utf-8"?>
<!-- Generator: Adobe Illustrator 23.0.1, SVG Export Plug-In . SVG Version: 6.00 Build 0)  -->
<svg version="1.1" id="Layer_1" xmlns="http://www.w3.org/2000/svg" xmlns:xlink="http://www.w3.org/1999/xlink" x="0px" y="0px"
	 viewBox="0 0 512 512" style="enable-background:new 0 0 512 512;" xml:space="preserve">
<style type="text/css">
	.st0{fill:url(#SVGID_1_);}
	.st1{fill:url(#SVGID_2_);}
	.st2{fill:url(#SVGID_3_);}
	.st3{fill:url(#SVGID_4_);}
	.st4{fill:url(#SVGID_5_);}
	.st5{fill:url(#SVGID_6_);}
</style>
<g>
	<g>
		<linearGradient id="SVGID_1_" gradientUnits="userSpaceOnUse" x1="255.9995" y1="491.771" x2="255.9995" y2="20.23">
			<stop  offset="0" style="stop-color:#F26522"/>
			<stop  offset="3.563249e-02" style="stop-color:#F35A2F"/>
			<stop  offset="0.132" style="stop-color:#F5414D"/>
			<stop  offset="0.2386" style="stop-color:#F72C66"/>
			<stop  offset="0.3575" style="stop-color:#F81C79"/>
			<stop  offset="0.4954" style="stop-color:#F91187"/>
			<stop  offset="0.6698" style="stop-color:#FA0A8F"/>
			<stop  offset="1" style="stop-color:#FA0891"/>
		</linearGradient>
		<path class="st0" d="M463.7,20.2H48.3C21.7,20.2,0,41.9,0,68.6v275.8c0,26.7,21.7,48.3,48.3,48.3h137c-1.2,26.7-6,52.5-14.2,77.1
			h-33.5c-6.1,0-11,4.9-11,11s4.9,11,11,11h236.7c6.1,0,11-4.9,11-11s-4.9-11-11-11h-33.5c-8.2-24.6-13-50.4-14.2-77.1h137
			c26.7,0,48.3-21.7,48.3-48.3V68.6C512,41.9,490.3,20.2,463.7,20.2z M22,68.6c0-14.5,11.8-26.3,26.3-26.3h415.3
			c14.5,0,26.3,11.8,26.3,26.3V320H22V68.6z M194.2,469.8c7.6-24.7,12-50.5,13.1-77.1h97.2c1.1,26.5,5.5,52.4,13.1,77.1H194.2z
			 M490,344.3L490,344.3c0,14.5-11.8,26.3-26.3,26.3H48.3c-14.5,0-26.3-11.8-26.3-26.3v-2.3h468V344.3z"/>
		<linearGradient id="SVGID_2_" gradientUnits="userSpaceOnUse" x1="284.2765" y1="298.012" x2="284.2765" y2="275.99">
			<stop  offset="0" style="stop-color:#F26522"/>
			<stop  offset="3.563249e-02" style="stop-color:#F35A2F"/>
			<stop  offset="0.132" style="stop-color:#F5414D"/>
			<stop  offset="0.2386" style="stop-color:#F72C66"/>
			<stop  offset="0.3575" style="stop-color:#F81C79"/>
			<stop  offset="0.4954" style="stop-color:#F91187"/>
			<stop  offset="0.6698" style="stop-color:#FA0A8F"/>
			<stop  offset="1" style="stop-color:#FA0891"/>
		</linearGradient>
		<path class="st1" d="M402.8,276H165.7c-6.1,0-11,4.9-11,11s4.9,11,11,11h237.1c6.1,0,11-4.9,11-11
			C413.8,280.9,408.9,276,402.8,276z"/>
		<linearGradient id="SVGID_3_" gradientUnits="userSpaceOnUse" x1="110.068" y1="298.012" x2="110.068" y2="275.99">
			<stop  offset="0" style="stop-color:#F26522"/>
			<stop  offset="3.563249e-02" style="stop-color:#F35A2F"/>
			<stop  offset="0.132" style="stop-color:#F5414D"/>
			<stop  offset="0.2386" style="stop-color:#F72C66"/>
			<stop  offset="0.3575" style="stop-color:#F81C79"/>
			<stop  offset="0.4954" style="stop-color:#F91187"/>
			<stop  offset="0.6698" style="stop-color:#FA0A8F"/>
			<stop  offset="1" style="stop-color:#FA0891"/>
		</linearGradient>
		<path class="st2" d="M111,276h-1.8c-6.1,0-11,4.9-11,11s4.9,11,11,11h1.8c6.1,0,11-4.9,11-11C122,280.9,117,276,111,276z"/>
		<linearGradient id="SVGID_4_" gradientUnits="userSpaceOnUse" x1="365.4689" y1="241.684" x2="365.4689" y2="91.9381">
			<stop  offset="0" style="stop-color:#F26522"/>
			<stop  offset="3.563249e-02" style="stop-color:#F35A2F"/>
			<stop  offset="0.132" style="stop-color:#F5414D"/>
			<stop  offset="0.2386" style="stop-color:#F72C66"/>
			<stop  offset="0.3575" style="stop-color:#F81C79"/>
			<stop  offset="0.4954" style="stop-color:#F91187"/>
			<stop  offset="0.6698" style="stop-color:#FA0A8F"/>
			<stop  offset="1" style="stop-color:#FA0891"/>
		</linearGradient>
		<path class="st3" d="M321,111.3l64.9,55.5L321,222.3c-4.6,4-5.2,10.9-1.2,15.5c2.2,2.5,5.3,3.9,8.4,3.9c2.5,0,5.1-0.9,7.1-2.6
			l74.7-63.9c2.4-2.1,3.9-5.1,3.9-8.4s-1.4-6.3-3.9-8.4l-74.7-63.9c-4.6-4-11.6-3.4-15.5,1.2C315.8,100.4,316.3,107.4,321,111.3z"/>
		<linearGradient id="SVGID_5_" gradientUnits="userSpaceOnUse" x1="146.5307" y1="241.684" x2="146.5307" y2="91.9379">
			<stop  offset="0" style="stop-color:#F26522"/>
			<stop  offset="3.563249e-02" style="stop-color:#F35A2F"/>
			<stop  offset="0.132" style="stop-color:#F5414D"/>
			<stop  offset="0.2386" style="stop-color:#F72C66"/>
			<stop  offset="0.3575" style="stop-color:#F81C79"/>
			<stop  offset="0.4954" style="stop-color:#F91187"/>
			<stop  offset="0.6698" style="stop-color:#FA0A8F"/>
			<stop  offset="1" style="stop-color:#FA0891"/>
		</linearGradient>
		<path class="st4" d="M102,175.2l74.7,63.9c2.1,1.8,4.6,2.6,7.1,2.6c3.1,0,6.2-1.3,8.4-3.9c4-4.6,3.4-11.6-1.2-15.5l-64.9-55.5
			l64.9-55.5c4.6-4,5.2-10.9,1.2-15.5c-4-4.6-10.9-5.2-15.5-1.2L102,158.4c-2.4,2.1-3.9,5.1-3.9,8.4S99.6,173.1,102,175.2z"/>
		<linearGradient id="SVGID_6_" gradientUnits="userSpaceOnUse" x1="256.0008" y1="264.08" x2="256.0008" y2="69.544">
			<stop  offset="0" style="stop-color:#F26522"/>
			<stop  offset="3.563249e-02" style="stop-color:#F35A2F"/>
			<stop  offset="0.132" style="stop-color:#F5414D"/>
			<stop  offset="0.2386" style="stop-color:#F72C66"/>
			<stop  offset="0.3575" style="stop-color:#F81C79"/>
			<stop  offset="0.4954" style="stop-color:#F91187"/>
			<stop  offset="0.6698" style="stop-color:#FA0A8F"/>
			<stop  offset="1" style="stop-color:#FA0891"/>
		</linearGradient>
		<path class="st5" d="M224.5,263.5c1.1,0.4,2.3,0.5,3.4,0.5c4.6,0,9-3,10.5-7.6L294.5,84c1.9-5.8-1.3-12-7.1-13.9
			c-5.8-1.9-12,1.3-13.9,7.1l-56.2,172.5C215.6,255.4,218.7,261.7,224.5,263.5z"/>
	</g>
</g>
</svg>
